<svg width="138" height="142" viewBox="0 0 138 142" fill="none" xmlns="http://www.w3.org/2000/svg">
<path d="M75.0278 8.61462H15.1389C11.0044 8.61462 7.65277 12.3114 7.65277 16.8715V33.3853C7.65277 37.9454 11.0044 41.6422 15.1389 41.6422H75.0278C79.1622 41.6422 82.5139 37.9454 82.5139 33.3853V16.8715C82.5139 12.3114 79.1622 8.61462 75.0278 8.61462Z" stroke="#28D6D6" stroke-width="2" stroke-linecap="round" stroke-linejoin="round"/>
<path d="M75.0278 58.156H15.1389C11.0044 58.156 7.65277 61.8527 7.65277 66.4129V82.9267C7.65277 87.4868 11.0044 91.1835 15.1389 91.1835H75.0278C79.1622 91.1835 82.5139 87.4868 82.5139 82.9267V66.4129C82.5139 61.8527 79.1622 58.156 75.0278 58.156Z" stroke="#28D6D6" stroke-width="2" stroke-linecap="round" stroke-linejoin="round"/>
<path d="M22.625 25.1284H22.6619" stroke="#28D6D6" stroke-width="2" stroke-linecap="round" stroke-linejoin="round"/>
<path d="M22.625 74.6697H22.6619" stroke="#28D6D6" stroke-width="2" stroke-linecap="round" stroke-linejoin="round"/>
<path d="M92.9167 74.9755C111.522 74.9755 126.604 69.4304 126.604 62.5902C126.604 55.7499 111.522 50.2048 92.9167 50.2048C74.3116 50.2048 59.2292 55.7499 59.2292 62.5902C59.2292 69.4304 74.3116 74.9755 92.9167 74.9755Z" stroke="#28D6D6" stroke-width="2" stroke-linecap="round" stroke-linejoin="round"/>
<path d="M126.604 91.4893C126.604 98.3425 111.632 103.875 92.9167 103.875C74.2014 103.875 59.2292 98.3425 59.2292 91.4893" stroke="#28D6D6" stroke-width="2" stroke-linecap="round" stroke-linejoin="round"/>
<path d="M59.2292 62.5902V120.388C59.2292 127.242 74.2014 132.774 92.9167 132.774C111.632 132.774 126.604 127.242 126.604 120.388V62.5902" stroke="#28D6D6" stroke-width="2" stroke-linecap="round" stroke-linejoin="round"/>
</svg>
