<svg width="152" height="139" viewBox="0 0 152 139" fill="none" xmlns="http://www.w3.org/2000/svg">
<path d="M126.556 18.0884H25.4445C18.4642 18.0884 12.8056 23.2415 12.8056 29.598V87.146C12.8056 93.5026 18.4642 98.6556 25.4445 98.6556H126.556C133.536 98.6556 139.194 93.5026 139.194 87.146V29.598C139.194 23.2415 133.536 18.0884 126.556 18.0884Z" stroke="#28D6D6" stroke-width="2" stroke-linecap="round" stroke-linejoin="round"/>
<path d="M50.7222 121.675H101.278" stroke="#28D6D6" stroke-width="2" stroke-linecap="round" stroke-linejoin="round"/>
<path d="M76 98.6556V121.675" stroke="#28D6D6" stroke-width="2" stroke-linecap="round" stroke-linejoin="round"/>
<path d="M46.8751 58.5295V54.5295L62.8751 47.4841V52.0864L51.9205 56.4841L52.0682 56.2455V56.8136L51.9205 56.575L62.8751 60.9727V65.575L46.8751 58.5295ZM85.2245 41.4727L77.7245 69.3364H73.554L81.054 41.4727H85.2245ZM104.5 58.5295L88.5001 65.575V60.9727L99.4546 56.575L99.3069 56.8136V56.2455L99.4546 56.4841L88.5001 52.0864V47.4841L104.5 54.5295V58.5295Z" fill="#28D6D6"/>
</svg>
