<svg width="152" height="139" viewBox="0 0 152 139" fill="none" xmlns="http://www.w3.org/2000/svg">
<path d="M126.556 18.0884H25.4444C18.4642 18.0884 12.8055 23.2415 12.8055 29.598V87.146C12.8055 93.5026 18.4642 98.6556 25.4444 98.6556H126.556C133.536 98.6556 139.194 93.5026 139.194 87.146V29.598C139.194 23.2415 133.536 18.0884 126.556 18.0884Z" stroke="#28D6D6" stroke-width="2" stroke-linecap="round" stroke-linejoin="round"/>
<path d="M50.7222 121.675H101.278" stroke="#28D6D6" stroke-width="2" stroke-linecap="round" stroke-linejoin="round"/>
<path d="M76 98.6556V121.675" stroke="#28D6D6" stroke-width="2" stroke-linecap="round" stroke-linejoin="round"/>
<g clip-path="url(#clip0_166_141)">
<path d="M66.6666 68.9808C69.0829 68.9808 71.0416 66.9644 71.0416 64.477C71.0416 61.9897 69.0829 59.9733 66.6666 59.9733C64.2504 59.9733 62.2916 61.9897 62.2916 64.477C62.2916 66.9644 64.2504 68.9808 66.6666 68.9808Z" stroke="#28D6D6" stroke-width="2" stroke-linecap="round" stroke-linejoin="round"/>
<path d="M77.4583 68.9808C77.2642 69.4336 77.2063 69.9359 77.2921 70.4229C77.3779 70.9099 77.6034 71.3592 77.9396 71.713L78.0271 71.8031C78.2983 72.082 78.5134 72.4131 78.6602 72.7776C78.8069 73.1421 78.8825 73.5328 78.8825 73.9274C78.8825 74.322 78.8069 74.7127 78.6602 75.0772C78.5134 75.4417 78.2983 75.7728 78.0271 76.0517C77.7562 76.3308 77.4345 76.5523 77.0804 76.7034C76.7264 76.8545 76.3468 76.9323 75.9635 76.9323C75.5802 76.9323 75.2007 76.8545 74.8466 76.7034C74.4926 76.5523 74.1709 76.3308 73.9 76.0517L73.8125 75.9616C73.4688 75.6155 73.0323 75.3833 72.5592 75.295C72.0861 75.2067 71.5982 75.2663 71.1583 75.4662C70.727 75.6565 70.3591 75.9725 70.1 76.3752C69.8409 76.778 69.7019 77.25 69.7 77.7331V77.9883C69.7 78.7846 69.3927 79.5483 68.8457 80.1114C68.2987 80.6744 67.5569 80.9908 66.7833 80.9908C66.0098 80.9908 65.2679 80.6744 64.7209 80.1114C64.174 79.5483 63.8667 78.7846 63.8667 77.9883V77.8532C63.8554 77.3563 63.6991 76.8743 63.4182 76.4701C63.1374 76.0658 62.7448 75.7578 62.2917 75.5863C61.8518 75.3864 61.3639 75.3268 60.8908 75.4151C60.4177 75.5034 59.9812 75.7356 59.6375 76.0817L59.55 76.1718C59.2791 76.4509 58.9574 76.6724 58.6034 76.8235C58.2493 76.9746 57.8698 77.0524 57.4865 77.0524C57.1032 77.0524 56.7236 76.9746 56.3695 76.8235C56.0155 76.6724 55.6938 76.4509 55.4229 76.1718C55.1517 75.8929 54.9366 75.5618 54.7898 75.1973C54.643 74.8328 54.5675 74.4421 54.5675 74.0475C54.5675 73.6529 54.643 73.2622 54.7898 72.8977C54.9366 72.5332 55.1517 72.2021 55.4229 71.9232L55.5104 71.8331C55.8466 71.4793 56.0721 71.03 56.1579 70.543C56.2437 70.056 56.1858 69.5537 55.9917 69.1009C55.8068 68.6568 55.4999 68.2782 55.1086 68.0114C54.7173 67.7447 54.2589 67.6015 53.7896 67.5996H53.5417C52.7681 67.5996 52.0263 67.2833 51.4793 66.7202C50.9323 66.1571 50.625 65.3934 50.625 64.5971C50.625 63.8008 50.9323 63.0371 51.4793 62.474C52.0263 61.9109 52.7681 61.5946 53.5417 61.5946H53.6729C54.1556 61.583 54.6238 61.4221 55.0165 61.133C55.4092 60.8438 55.7083 60.4398 55.875 59.9733C56.0691 59.5205 56.127 59.0182 56.0413 58.5312C55.9555 58.0442 55.7299 57.5948 55.3937 57.241L55.3062 57.1509C55.0351 56.8721 54.8199 56.5409 54.6732 56.1764C54.5264 55.8119 54.4508 55.4212 54.4508 55.0266C54.4508 54.6321 54.5264 54.2414 54.6732 53.8769C54.8199 53.5124 55.0351 53.1812 55.3062 52.9024C55.5771 52.6232 55.8988 52.4017 56.2529 52.2506C56.607 52.0996 56.9865 52.0218 57.3698 52.0218C57.7531 52.0218 58.1326 52.0996 58.4867 52.2506C58.8408 52.4017 59.1625 52.6232 59.4333 52.9024L59.5208 52.9924C59.8645 53.3385 60.3011 53.5707 60.7741 53.659C61.2472 53.7473 61.7351 53.6877 62.175 53.4879H62.2917C62.723 53.2976 63.0909 52.9816 63.35 52.5788C63.6091 52.176 63.7481 51.7041 63.75 51.221V50.9658C63.75 50.1694 64.0573 49.4057 64.6043 48.8427C65.1513 48.2796 65.8931 47.9633 66.6667 47.9633C67.4402 47.9633 68.1821 48.2796 68.7291 48.8427C69.276 49.4057 69.5833 50.1694 69.5833 50.9658V51.1009C69.5852 51.584 69.7243 52.0559 69.9834 52.4587C70.2425 52.8615 70.6103 53.1775 71.0417 53.3678C71.4815 53.5676 71.9694 53.6272 72.4425 53.5389C72.9156 53.4506 73.3521 53.2184 73.6958 52.8723L73.7833 52.7823C74.0542 52.5031 74.3759 52.2816 74.73 52.1305C75.084 51.9795 75.4636 51.9017 75.8469 51.9017C76.2302 51.9017 76.6097 51.9795 76.9638 52.1305C77.3179 52.2816 77.6395 52.5031 77.9104 52.7823C78.1816 53.0611 78.3967 53.3923 78.5435 53.7568C78.6903 54.1213 78.7658 54.512 78.7658 54.9065C78.7658 55.3011 78.6903 55.6918 78.5435 56.0563C78.3967 56.4208 78.1816 56.752 77.9104 57.0308L77.8229 57.1209C77.4867 57.4747 77.2612 57.9241 77.1754 58.4111C77.0896 58.8981 77.1475 59.4004 77.3417 59.8532V59.9733C77.5265 60.4173 77.8335 60.796 78.2247 61.0627C78.616 61.3294 79.0745 61.4726 79.5437 61.4745H79.7917C80.5652 61.4745 81.3071 61.7908 81.8541 62.3539C82.401 62.917 82.7083 63.6807 82.7083 64.477C82.7083 65.2733 82.401 66.037 81.8541 66.6001C81.3071 67.1632 80.5652 67.4795 79.7917 67.4795H79.6604C79.1911 67.4814 78.7327 67.6246 78.3414 67.8913C77.9501 68.1581 77.6432 68.5367 77.4583 68.9808Z" stroke="#28D6D6" stroke-width="2" stroke-linecap="round" stroke-linejoin="round"/>
</g>
<g clip-path="url(#clip1_166_141)">
<path d="M91.1666 49.7648C92.9385 49.7648 94.3749 48.2861 94.3749 46.4621C94.3749 44.638 92.9385 43.1593 91.1666 43.1593C89.3947 43.1593 87.9583 44.638 87.9583 46.4621C87.9583 48.2861 89.3947 49.7648 91.1666 49.7648Z" stroke="#28D6D6" stroke-width="2" stroke-linecap="round" stroke-linejoin="round"/>
<path d="M99.0805 49.7648C98.9381 50.0968 98.8957 50.4652 98.9586 50.8223C99.0215 51.1794 99.1869 51.509 99.4334 51.7684L99.4976 51.8345C99.6964 52.039 99.8542 52.2818 99.9618 52.5491C100.069 52.8164 100.125 53.1029 100.125 53.3923C100.125 53.6816 100.069 53.9682 99.9618 54.2355C99.8542 54.5028 99.6964 54.7456 99.4976 54.9501C99.2989 55.1548 99.063 55.3172 98.8034 55.428C98.5437 55.5388 98.2654 55.5959 97.9843 55.5959C97.7032 55.5959 97.4249 55.5388 97.1652 55.428C96.9056 55.3172 96.6697 55.1548 96.471 54.9501L96.4069 54.884C96.1548 54.6302 95.8347 54.46 95.4878 54.3952C95.1409 54.3305 94.783 54.3742 94.4605 54.5207C94.1442 54.6603 93.8744 54.892 93.6844 55.1874C93.4944 55.4827 93.3924 55.8289 93.391 56.1831V56.3703C93.391 56.9542 93.1657 57.5143 92.7646 57.9272C92.3635 58.3401 91.8194 58.5721 91.2522 58.5721C90.6849 58.5721 90.1408 58.3401 89.7397 57.9272C89.3386 57.5143 89.1133 56.9542 89.1133 56.3703V56.2712C89.105 55.9068 88.9904 55.5534 88.7844 55.2569C88.5784 54.9604 88.2906 54.7346 87.9583 54.6088C87.6357 54.4623 87.2779 54.4185 86.931 54.4833C86.584 54.5481 86.2639 54.7183 86.0119 54.9721L85.9477 55.0382C85.7491 55.2429 85.5132 55.4053 85.2535 55.5161C84.9939 55.6269 84.7155 55.6839 84.4344 55.6839C84.1534 55.6839 83.875 55.6269 83.6154 55.5161C83.3557 55.4053 83.1198 55.2429 82.9212 55.0382C82.7223 54.8337 82.5646 54.5908 82.4569 54.3235C82.3493 54.0562 82.2939 53.7697 82.2939 53.4804C82.2939 53.191 82.3493 52.9045 82.4569 52.6372C82.5646 52.3699 82.7223 52.1271 82.9212 51.9226L82.9853 51.8565C83.2319 51.597 83.3973 51.2675 83.4602 50.9104C83.5231 50.5532 83.4806 50.1849 83.3383 49.8528C83.2027 49.5272 82.9776 49.2495 82.6907 49.0539C82.4038 48.8583 82.0675 48.7533 81.7234 48.7519H81.5416C80.9743 48.7519 80.4303 48.5199 80.0292 48.107C79.6281 47.6941 79.4027 47.1341 79.4027 46.5501C79.4027 45.9661 79.6281 45.4061 80.0292 44.9932C80.4303 44.5802 80.9743 44.3483 81.5416 44.3483H81.6378C81.9918 44.3397 82.3351 44.2218 82.6231 44.0097C82.9111 43.7977 83.1305 43.5014 83.2527 43.1593C83.3951 42.8272 83.4375 42.4589 83.3746 42.1017C83.3117 41.7446 83.1463 41.4151 82.8998 41.1556L82.8356 41.0895C82.6368 40.8851 82.479 40.6422 82.3714 40.3749C82.2637 40.1076 82.2083 39.8211 82.2083 39.5317C82.2083 39.2424 82.2637 38.9559 82.3714 38.6886C82.479 38.4213 82.6368 38.1784 82.8356 37.9739C83.0343 37.7692 83.2702 37.6068 83.5298 37.496C83.7895 37.3852 84.0678 37.3282 84.3489 37.3282C84.63 37.3282 84.9083 37.3852 85.168 37.496C85.4276 37.6068 85.6635 37.7692 85.8622 37.9739L85.9263 38.04C86.1784 38.2938 86.4985 38.4641 86.8454 38.5288C87.1923 38.5936 87.5501 38.5499 87.8727 38.4033H87.9583C88.2746 38.2637 88.5443 38.032 88.7344 37.7367C88.9244 37.4413 89.0263 37.0952 89.0277 36.7409V36.5538C89.0277 35.9698 89.2531 35.4098 89.6542 34.9968C90.0553 34.5839 90.5993 34.3519 91.1666 34.3519C91.7339 34.3519 92.2779 34.5839 92.679 34.9968C93.0801 35.4098 93.3055 35.9698 93.3055 36.5538V36.6528C93.3069 37.0071 93.4088 37.3532 93.5988 37.6486C93.7889 37.944 94.0586 38.1757 94.3749 38.3152C94.6975 38.4618 95.0553 38.5055 95.4022 38.4407C95.7491 38.376 96.0693 38.2057 96.3213 37.9519L96.3855 37.8859C96.5841 37.6812 96.82 37.5187 97.0797 37.4079C97.3393 37.2971 97.6177 37.2401 97.8987 37.2401C98.1798 37.2401 98.4582 37.2971 98.7178 37.4079C98.9775 37.5187 99.2134 37.6812 99.412 37.8859C99.6109 38.0904 99.7686 38.3332 99.8763 38.6005C99.9839 38.8678 100.039 39.1543 100.039 39.4437C100.039 39.733 99.9839 40.0195 99.8763 40.2868C99.7686 40.5541 99.6109 40.797 99.412 41.0015L99.3478 41.0675C99.1013 41.327 98.9359 41.6565 98.873 42.0137C98.8101 42.3708 98.8526 42.7391 98.9949 43.0712V43.1593C99.1305 43.4849 99.3556 43.7626 99.6425 43.9582C99.9294 44.1538 100.266 44.2588 100.61 44.2602H100.792C101.359 44.2602 101.903 44.4922 102.304 44.9051C102.705 45.318 102.93 45.8781 102.93 46.462C102.93 47.046 102.705 47.606 102.304 48.0189C101.903 48.4319 101.359 48.6639 100.792 48.6639H100.695C100.351 48.6653 100.015 48.7702 99.7281 48.9658C99.4411 49.1614 99.2161 49.4392 99.0805 49.7648Z" stroke="#28D6D6" stroke-width="2" stroke-linecap="round" stroke-linejoin="round"/>
</g>
<defs>
<clipPath id="clip0_166_141">
<rect width="35" height="36.03" fill="white" transform="translate(49.1666 46.462)"/>
</clipPath>
<clipPath id="clip1_166_141">
<rect width="25.6667" height="26.422" fill="white" transform="translate(78.3333 33.251)"/>
</clipPath>
</defs>
</svg>
